<svg xmlns="http://www.w3.org/2000/svg" xmlns:xlink="http://www.w3.org/1999/xlink" width="2000" zoomAndPan="magnify" viewBox="0 0 1500 1499.999933" height="2000" preserveAspectRatio="xMidYMid meet" version="1.0"><defs><g/><clipPath id="3219f8427e"><rect x="0" width="1477" y="0" height="487"/></clipPath></defs><g transform="matrix(1, 0, 0, 1, 14, 505)"><g clip-path="url(#3219f8427e)"><g fill="#38b6ff" fill-opacity="1"><g transform="translate(78.087878, 412.892171)"><g><path d="M 158.734375 -254.03125 C 169.378906 -245.882812 177.582031 -235.921875 183.34375 -224.140625 C 189.101562 -212.359375 192.851562 -199.5625 194.59375 -185.75 C 196.332031 -171.945312 196.398438 -158.03125 194.796875 -144 C 193.191406 -129.976562 190.332031 -116.644531 186.21875 -104 C 191.976562 -98.15625 197.019531 -91.679688 201.34375 -84.578125 C 205.675781 -77.472656 209.046875 -69.6875 211.453125 -61.21875 C 213.429688 -54.40625 213.226562 -48.488281 210.84375 -43.46875 C 208.457031 -38.457031 204.765625 -34.625 199.765625 -31.96875 C 194.773438 -29.3125 189.445312 -27.957031 183.78125 -27.90625 C 178.113281 -27.851562 172.914062 -29.429688 168.1875 -32.640625 C 163.46875 -35.859375 160.117188 -40.878906 158.140625 -47.703125 C 157.898438 -48.648438 157.445312 -49.925781 156.78125 -51.53125 C 147.863281 -41.945312 137.8125 -34.09375 126.625 -27.96875 C 115.4375 -21.851562 103.722656 -18.0625 91.484375 -16.59375 C 79.253906 -15.132812 67.203125 -16.679688 55.328125 -21.234375 C 43.453125 -25.785156 32.546875 -33.734375 22.609375 -45.078125 C 12.429688 -56.359375 4.488281 -69.285156 -1.21875 -83.859375 C -6.9375 -98.429688 -10.382812 -113.765625 -11.5625 -129.859375 C -12.75 -145.953125 -11.707031 -161.722656 -8.4375 -177.171875 C -5.175781 -192.628906 0.441406 -206.984375 8.421875 -220.234375 C 16.410156 -233.484375 26.882812 -244.394531 39.84375 -252.96875 C 51.664062 -261.03125 64.550781 -266.640625 78.5 -269.796875 C 92.457031 -272.953125 106.363281 -273.320312 120.21875 -270.90625 C 134.070312 -268.5 146.910156 -262.875 158.734375 -254.03125 Z M 59.375 -86.5625 C 60.914062 -84.4375 62.519531 -82.578125 64.1875 -80.984375 C 70.019531 -74.890625 76.125 -71.707031 82.5 -71.4375 C 88.875 -71.164062 95.132812 -72.816406 101.28125 -76.390625 C 107.4375 -79.972656 112.847656 -84.5 117.515625 -89.96875 C 113.421875 -92.207031 109.5 -94.488281 105.75 -96.8125 C 102.007812 -99.144531 98.476562 -101.40625 95.15625 -103.59375 C 89.15625 -107.351562 85.328125 -111.988281 83.671875 -117.5 C 82.015625 -123.019531 82.003906 -128.507812 83.640625 -133.96875 C 85.285156 -139.425781 88.054688 -144.160156 91.953125 -148.171875 C 95.859375 -152.179688 100.550781 -154.566406 106.03125 -155.328125 C 111.507812 -156.097656 117.253906 -154.597656 123.265625 -150.828125 C 123.554688 -150.640625 124.960938 -149.796875 127.484375 -148.296875 C 130.015625 -146.796875 132.554688 -145.234375 135.109375 -143.609375 C 137.671875 -141.992188 138.976562 -141.070312 139.03125 -140.84375 C 140.019531 -147.882812 140.8125 -154.953125 141.40625 -162.046875 C 142 -169.140625 141.664062 -176.179688 140.40625 -183.171875 C 139.4375 -189.992188 136.953125 -196.550781 132.953125 -202.84375 C 128.953125 -209.144531 123.71875 -213.613281 117.25 -216.25 C 108.457031 -220.070312 99.859375 -220.410156 91.453125 -217.265625 C 83.046875 -214.128906 75.625 -209.097656 69.1875 -202.171875 C 62.75 -195.242188 57.828125 -188.066406 54.421875 -180.640625 C 50.304688 -171.015625 47.539062 -160.535156 46.125 -149.203125 C 44.707031 -137.878906 45.007812 -126.738281 47.03125 -115.78125 C 49.050781 -104.820312 53.164062 -95.082031 59.375 -86.5625 Z M 59.375 -86.5625 "/></g></g></g><g fill="#38b6ff" fill-opacity="1"><g transform="translate(288.443519, 358.519443)"><g><path d="M 152.703125 -166.890625 L 152.328125 -166.84375 C 163.222656 -162.113281 171.847656 -154.863281 178.203125 -145.09375 C 184.566406 -135.332031 187.789062 -124.640625 187.875 -113.015625 C 187.90625 -98.679688 184.859375 -86.207031 178.734375 -75.59375 C 172.609375 -64.976562 164.582031 -55.796875 154.65625 -48.046875 C 144.738281 -40.296875 133.804688 -33.875 121.859375 -28.78125 C 109.921875 -23.6875 98.007812 -19.59375 86.125 -16.5 C 79.226562 -14.675781 73.46875 -15.070312 68.84375 -17.6875 C 64.226562 -20.300781 60.835938 -24.160156 58.671875 -29.265625 C 56.515625 -34.367188 55.671875 -39.742188 56.140625 -45.390625 C 56.617188 -51.035156 58.648438 -56.238281 62.234375 -61 C 65.828125 -65.769531 70.945312 -69.046875 77.59375 -70.828125 C 87.101562 -73.316406 96.394531 -76.382812 105.46875 -80.03125 C 114.539062 -83.6875 121.972656 -89.929688 127.765625 -98.765625 C 131.691406 -105.304688 133.132812 -109.914062 132.09375 -112.59375 C 131.050781 -115.28125 128.585938 -116.75 124.703125 -117 C 120.828125 -117.257812 116.441406 -116.820312 111.546875 -115.6875 C 106.648438 -114.550781 102.328125 -113.320312 98.578125 -112 C 92.972656 -109.875 87.113281 -109.753906 81 -111.640625 C 74.894531 -113.523438 69.753906 -116.738281 65.578125 -121.28125 C 61.398438 -125.820312 58.992188 -130.890625 58.359375 -136.484375 C 57.734375 -142.078125 59.957031 -147.625 65.03125 -153.125 C 69.257812 -157.75 74.550781 -163.835938 80.90625 -171.390625 C 87.269531 -178.941406 93.222656 -187.113281 98.765625 -195.90625 C 104.316406 -204.695312 108.316406 -213.488281 110.765625 -222.28125 C 113.222656 -231.082031 112.65625 -239.039062 109.0625 -246.15625 C 106.613281 -250.71875 102.972656 -253.789062 98.140625 -255.375 C 93.316406 -256.96875 88.160156 -257.519531 82.671875 -257.03125 C 77.179688 -256.539062 72.300781 -255.710938 68.03125 -254.546875 C 59.769531 -252.015625 52.523438 -248.097656 46.296875 -242.796875 C 40.078125 -237.492188 34.6875 -231.265625 30.125 -224.109375 C 26.132812 -218.023438 21.523438 -214.265625 16.296875 -212.828125 C 11.078125 -211.398438 5.894531 -211.703125 0.75 -213.734375 C -4.394531 -215.773438 -8.800781 -219.039062 -12.46875 -223.53125 C -16.144531 -228.019531 -18.304688 -233.125 -18.953125 -238.84375 C -19.609375 -244.5625 -18.054688 -250.4375 -14.296875 -256.46875 C -8.148438 -266.101562 -0.257812 -274.890625 9.375 -282.828125 C 19.019531 -290.773438 29.6875 -297.335938 41.375 -302.515625 C 53.070312 -307.691406 65.0625 -310.9375 77.34375 -312.25 C 89.632812 -313.5625 101.5625 -312.460938 113.125 -308.953125 C 124.695312 -305.453125 135.15625 -299.113281 144.5 -289.9375 C 155.644531 -278.832031 162.347656 -266.460938 164.609375 -252.828125 C 166.878906 -239.203125 166.046875 -225.210938 162.109375 -210.859375 C 158.179688 -196.515625 152.5625 -182.707031 145.25 -169.4375 C 147.851562 -168.601562 150.335938 -167.753906 152.703125 -166.890625 Z M 152.703125 -166.890625 "/></g></g></g><g fill="#38b6ff" fill-opacity="1"><g transform="translate(472.667304, 328.206346)"><g><path d="M 156.421875 -100.140625 C 163.128906 -102.347656 169.066406 -102.472656 174.234375 -100.515625 C 179.398438 -98.554688 183.554688 -95.238281 186.703125 -90.5625 C 189.859375 -85.882812 191.703125 -80.679688 192.234375 -74.953125 C 192.773438 -69.234375 191.679688 -63.945312 188.953125 -59.09375 C 186.234375 -54.25 181.535156 -50.601562 174.859375 -48.15625 C 162.660156 -43.863281 150.101562 -40.335938 137.1875 -37.578125 C 124.269531 -34.816406 111.351562 -33.828125 98.4375 -34.609375 C 85.519531 -35.398438 72.96875 -38.664062 60.78125 -44.40625 C 45.050781 -51.863281 32.679688 -62.867188 23.671875 -77.421875 C 14.671875 -91.972656 9.910156 -108.054688 9.390625 -125.671875 C 9.140625 -142.796875 12.234375 -159.429688 18.671875 -175.578125 C 25.117188 -191.734375 34.1875 -206.296875 45.875 -219.265625 C 57.570312 -232.234375 71.175781 -242.515625 86.6875 -250.109375 C 102.207031 -257.710938 118.675781 -261.40625 136.09375 -261.1875 C 143.195312 -261.207031 149.023438 -259.359375 153.578125 -255.640625 C 158.128906 -251.921875 161.273438 -247.304688 163.015625 -241.796875 C 164.753906 -236.285156 165.144531 -230.796875 164.1875 -225.328125 C 163.238281 -219.867188 160.75 -215.34375 156.71875 -211.75 C 152.6875 -208.15625 147.117188 -206.347656 140.015625 -206.328125 C 127.265625 -206.398438 115.421875 -203.160156 104.484375 -196.609375 C 93.554688 -190.066406 84.550781 -181.457031 77.46875 -170.78125 C 70.394531 -160.101562 66.21875 -148.351562 64.9375 -135.53125 C 63.519531 -124.394531 64.695312 -115.59375 68.46875 -109.125 C 72.238281 -102.65625 77.535156 -98.003906 84.359375 -95.171875 C 91.179688 -92.347656 98.816406 -90.9375 107.265625 -90.9375 C 115.722656 -90.9375 124.238281 -91.789062 132.8125 -93.5 C 141.394531 -95.21875 149.265625 -97.429688 156.421875 -100.140625 Z M 156.421875 -100.140625 "/></g></g></g><g fill="#38b6ff" fill-opacity="1"><g transform="translate(652.370245, 313.879511)"><g><path d="M 164.1875 -86.859375 C 171.039062 -88.492188 176.960938 -88.117188 181.953125 -85.734375 C 186.941406 -83.359375 190.8125 -79.707031 193.5625 -74.78125 C 196.3125 -69.863281 197.71875 -64.53125 197.78125 -58.78125 C 197.84375 -53.03125 196.316406 -47.847656 193.203125 -43.234375 C 190.085938 -38.628906 185.097656 -35.390625 178.234375 -33.515625 C 165.722656 -30.242188 152.914062 -27.765625 139.8125 -26.078125 C 126.71875 -24.390625 113.765625 -24.472656 100.953125 -26.328125 C 88.148438 -28.191406 75.921875 -32.492188 64.265625 -39.234375 C 49.203125 -47.960938 37.785156 -59.945312 30.015625 -75.1875 C 22.253906 -90.4375 18.835938 -106.851562 19.765625 -124.4375 C 20.941406 -141.539062 25.410156 -157.875 33.171875 -173.4375 C 40.929688 -189 51.171875 -202.753906 63.890625 -214.703125 C 76.617188 -226.660156 91.023438 -235.785156 107.109375 -242.078125 C 123.203125 -248.367188 139.914062 -250.679688 157.25 -249.015625 C 164.34375 -248.441406 170.003906 -246.113281 174.234375 -242.03125 C 178.460938 -237.957031 181.210938 -233.097656 182.484375 -227.453125 C 183.765625 -221.816406 183.703125 -216.316406 182.296875 -210.953125 C 180.890625 -205.597656 178.03125 -201.289062 173.71875 -198.03125 C 169.40625 -194.78125 163.707031 -193.441406 156.625 -194.015625 C 143.925781 -195.140625 131.859375 -192.894531 120.421875 -187.28125 C 108.992188 -181.664062 99.304688 -173.832031 91.359375 -163.78125 C 83.421875 -153.726562 78.28125 -142.359375 75.9375 -129.671875 C 73.613281 -118.691406 74.0625 -109.820312 77.28125 -103.0625 C 80.5 -96.3125 85.390625 -91.25 91.953125 -87.875 C 98.523438 -84.5 106.019531 -82.457031 114.4375 -81.75 C 122.863281 -81.039062 131.421875 -81.1875 140.109375 -82.1875 C 148.796875 -83.1875 156.820312 -84.742188 164.1875 -86.859375 Z M 164.1875 -86.859375 "/></g></g></g><g fill="#38b6ff" fill-opacity="1"><g transform="translate(835.171229, 316.566511)"><g/></g></g><g fill="#38b6ff" fill-opacity="1"><g transform="translate(914.011348, 319.765846)"><g><path d="M 209.359375 -134.734375 C 206.890625 -110.421875 204.300781 -86.113281 201.59375 -61.8125 C 198.882812 -37.507812 196.296875 -13.191406 193.828125 11.140625 C 193.140625 18.191406 190.695312 23.597656 186.5 27.359375 C 182.300781 31.128906 177.445312 33.328125 171.9375 33.953125 C 166.4375 34.585938 161.050781 33.816406 155.78125 31.640625 C 150.519531 29.460938 146.285156 26.066406 143.078125 21.453125 C 139.867188 16.835938 138.609375 11.003906 139.296875 3.953125 C 140.003906 -3.347656 140.773438 -10.640625 141.609375 -17.921875 C 142.453125 -25.210938 143.234375 -32.507812 143.953125 -39.8125 L 89.65625 -48.84375 C 86.539062 -40.113281 83.523438 -31.257812 80.609375 -22.28125 C 77.703125 -13.300781 74.789062 -4.3125 71.875 4.6875 C 69.757812 11.300781 66.375 15.90625 61.71875 18.5 C 57.070312 21.09375 51.957031 22.019531 46.375 21.28125 C 40.800781 20.550781 35.722656 18.40625 31.140625 14.84375 C 26.554688 11.28125 23.207031 6.765625 21.09375 1.296875 C 18.988281 -4.160156 18.988281 -10.195312 21.09375 -16.8125 C 28.570312 -40 36.570312 -62.863281 45.09375 -85.40625 C 53.625 -107.957031 64.316406 -129.601562 77.171875 -150.34375 C 83.453125 -160.601562 91.175781 -171.539062 100.34375 -183.15625 C 109.519531 -194.769531 119.585938 -205.21875 130.546875 -214.5 C 141.515625 -223.78125 153.15625 -230.195312 165.46875 -233.75 C 176.976562 -236.914062 185.929688 -236.597656 192.328125 -232.796875 C 198.734375 -228.992188 203.375 -223.019531 206.25 -214.875 C 209.125 -206.726562 210.828125 -197.6875 211.359375 -187.75 C 211.898438 -177.820312 211.847656 -168.085938 211.203125 -158.546875 C 210.566406 -149.015625 209.953125 -141.078125 209.359375 -134.734375 Z M 114.65625 -106.5625 C 114.28125 -105.613281 113.847656 -104.679688 113.359375 -103.765625 C 112.867188 -102.847656 112.3125 -101.9375 111.6875 -101.03125 C 118.207031 -99.925781 124.597656 -98.835938 130.859375 -97.765625 C 137.128906 -96.691406 143.40625 -95.617188 149.6875 -94.546875 C 150.46875 -102.335938 151.316406 -110.175781 152.234375 -118.0625 C 153.160156 -125.957031 154.023438 -133.914062 154.828125 -141.9375 C 155.003906 -145.132812 155.320312 -148.488281 155.78125 -152 C 156.25 -155.507812 156.722656 -159.082031 157.203125 -162.71875 C 152.441406 -158.414062 148.300781 -154.15625 144.78125 -149.9375 C 138.976562 -143.300781 133.566406 -136.367188 128.546875 -129.140625 C 123.523438 -121.910156 118.894531 -114.382812 114.65625 -106.5625 Z M 114.65625 -106.5625 "/></g></g></g><g fill="#38b6ff" fill-opacity="1"><g transform="translate(1089.050055, 340.864894)"><g><path d="M 198.65625 -213.046875 C 209.0625 -205.753906 218.148438 -197.300781 225.921875 -187.6875 C 233.703125 -178.082031 239.421875 -167.679688 243.078125 -156.484375 C 246.742188 -145.296875 247.734375 -133.878906 246.046875 -122.234375 C 244.359375 -110.597656 239.273438 -99.203125 230.796875 -88.046875 C 220.085938 -74.648438 207.179688 -64.921875 192.078125 -58.859375 C 176.972656 -52.796875 161.207031 -50.257812 144.78125 -51.25 C 128.351562 -52.25 112.78125 -56.25 98.0625 -63.25 C 93.625 -49.957031 89.1875 -36.664062 84.75 -23.375 C 80.320312 -10.082031 75.894531 3.207031 71.46875 16.5 C 69.269531 23.019531 65.742188 27.9375 60.890625 31.25 C 56.035156 34.5625 50.710938 36.269531 44.921875 36.375 C 39.140625 36.476562 33.769531 35.289062 28.8125 32.8125 C 23.851562 30.34375 20.265625 26.738281 18.046875 22 C 15.835938 17.257812 15.734375 11.476562 17.734375 4.65625 C 28.191406 -26.832031 38.507812 -58.285156 48.6875 -89.703125 C 58.863281 -121.128906 69.269531 -152.445312 79.90625 -183.65625 C 84.351562 -195.9375 90.320312 -206.566406 97.8125 -215.546875 C 105.3125 -224.535156 115.914062 -230.023438 129.625 -232.015625 C 141.789062 -233.835938 153.882812 -232.796875 165.90625 -228.890625 C 177.9375 -224.992188 188.851562 -219.710938 198.65625 -213.046875 Z M 115.328125 -116.140625 C 120.941406 -113.140625 127.539062 -110.675781 135.125 -108.75 C 142.707031 -106.832031 150.410156 -106.015625 158.234375 -106.296875 C 166.054688 -106.585938 172.984375 -108.503906 179.015625 -112.046875 C 185.054688 -115.597656 189.335938 -121.347656 191.859375 -129.296875 C 193.484375 -134.441406 192.804688 -139.910156 189.828125 -145.703125 C 186.847656 -151.492188 182.523438 -156.890625 176.859375 -161.890625 C 171.203125 -166.890625 165.320312 -170.875 159.21875 -173.84375 C 153.125 -176.820312 147.675781 -178.21875 142.875 -178.03125 C 140.039062 -177.644531 138.296875 -177.398438 137.640625 -177.296875 C 136.992188 -177.191406 136.59375 -176.78125 136.4375 -176.0625 C 136.28125 -175.351562 135.34375 -173.9375 133.625 -171.8125 C 131.507812 -169.019531 129.875 -164.992188 128.71875 -159.734375 C 127.5625 -154.484375 126.441406 -149.976562 125.359375 -146.21875 C 123.722656 -141.0625 122.050781 -136.046875 120.34375 -131.171875 C 118.644531 -126.296875 116.972656 -121.285156 115.328125 -116.140625 Z M 115.328125 -116.140625 "/></g></g></g><g fill="#38b6ff" fill-opacity="1"><g transform="translate(1283.500449, 384.661044)"><g><path d="M 96.03125 -207.796875 C 98.632812 -214.160156 102.523438 -218.820312 107.703125 -221.78125 C 112.878906 -224.738281 118.351562 -226.085938 124.125 -225.828125 C 129.90625 -225.566406 135.191406 -224.046875 139.984375 -221.265625 C 144.785156 -218.484375 148.140625 -214.65625 150.046875 -209.78125 C 151.953125 -204.914062 151.570312 -199.179688 148.90625 -192.578125 C 123.769531 -130.867188 100.128906 -68.609375 77.984375 -5.796875 C 75.554688 0.878906 71.882812 5.671875 66.96875 8.578125 C 62.0625 11.492188 56.765625 12.894531 51.078125 12.78125 C 45.390625 12.664062 40.160156 11.160156 35.390625 8.265625 C 30.617188 5.378906 27.101562 1.445312 24.84375 -3.53125 C 22.59375 -8.507812 22.679688 -14.335938 25.109375 -21.015625 C 47.273438 -83.828125 70.914062 -146.085938 96.03125 -207.796875 Z M 96.03125 -207.796875 "/></g></g></g></g></g></svg>